HIERARCHY
ROOT mixamorig:Hips
{
	OFFSET 0.000000 201.639420 0.000000
	CHANNELS 6 Xposition Yposition Zposition Xrotation Yrotation Zrotation
	JOINT mixamorig:Spine
	{
		OFFSET 0.006200 19.524994 -2.481800
		CHANNELS 3 Xrotation Yrotation Zrotation
		JOINT mixamorig:Spine1
		{
			OFFSET -0.000900 22.835007 -2.825400
			CHANNELS 3 Xrotation Yrotation Zrotation
			JOINT mixamorig:Spine2
			{
				OFFSET -0.020600 26.552490 -3.193300
				CHANNELS 3 Xrotation Yrotation Zrotation
				JOINT mixamorig:Neck
				{
					OFFSET -0.060000 30.701813 1.352200
					CHANNELS 3 Xrotation Yrotation Zrotation
					JOINT mixamorig:Head
					{
						OFFSET -0.087200 22.547607 3.670900
						CHANNELS 3 Xrotation Yrotation Zrotation
						JOINT mixamorig:HeadTop_End
						{
							OFFSET -0.830600 40.355194 7.893500
							CHANNELS 3 Xrotation Yrotation Zrotation
							End Site
							{
								OFFSET 0.000000 30.592346 0.000000
							}
						}
						JOINT mixamorig:RightEye
						{
							OFFSET -6.302100 18.118591 16.197100
							CHANNELS 3 Xrotation Yrotation Zrotation
							End Site
							{
								OFFSET 0.000000 30.592346 0.000000
							}
						}
						JOINT mixamorig:LeftEye
						{
							OFFSET 6.741500 18.382690 16.401899
							CHANNELS 3 Xrotation Yrotation Zrotation
							End Site
							{
								OFFSET 0.000000 30.592346 0.000000
							}
						}
					}
				}
				JOINT mixamorig:LeftShoulder
				{
					OFFSET 11.924900 18.230499 1.425400
					CHANNELS 3 Xrotation Yrotation Zrotation
					JOINT mixamorig:LeftArm
					{
						OFFSET 25.435989 -0.697632 -5.229300
						CHANNELS 3 Xrotation Yrotation Zrotation
						JOINT mixamorig:LeftForeArm
						{
							OFFSET 54.684776 0.000000 0.000000
							CHANNELS 3 Xrotation Yrotation Zrotation
							JOINT mixamorig:LeftHand
							{
								OFFSET 55.098175 0.000000 0.000000
								CHANNELS 3 Xrotation Yrotation Zrotation
								JOINT mixamorig:LeftHandMiddle1
								{
									OFFSET 23.369751 0.000000 0.000000
									CHANNELS 3 Xrotation Yrotation Zrotation
									JOINT mixamorig:LeftHandMiddle2
									{
										OFFSET 6.378677 0.000000 0.000000
										CHANNELS 3 Xrotation Yrotation Zrotation
										JOINT mixamorig:LeftHandMiddle3
										{
											OFFSET 6.148331 0.000000 0.000000
											CHANNELS 3 Xrotation Yrotation Zrotation
											JOINT mixamorig:LeftHandMiddle4
											{
												OFFSET 6.582504 0.000000 0.000000
												CHANNELS 3 Xrotation Yrotation Zrotation
												End Site
												{
													OFFSET -1.168900 6.395691 1.028606
												}
											}
										}
									}
								}
								JOINT mixamorig:LeftHandThumb1
								{
									OFFSET 7.235672 -3.848206 5.434273
									CHANNELS 3 Xrotation Yrotation Zrotation
									JOINT mixamorig:LeftHandThumb2
									{
										OFFSET 6.568451 -3.792297 3.792300
										CHANNELS 3 Xrotation Yrotation Zrotation
										JOINT mixamorig:LeftHandThumb3
										{
											OFFSET 6.063080 -3.500519 3.500518
											CHANNELS 3 Xrotation Yrotation Zrotation
											JOINT mixamorig:LeftHandThumb4
											{
												OFFSET 4.793182 -2.767334 2.767349
												CHANNELS 3 Xrotation Yrotation Zrotation
												End Site
												{
													OFFSET 0.101639 6.054260 1.275483
												}
											}
										}
									}
								}
								JOINT mixamorig:LeftHandIndex1
								{
									OFFSET 23.101074 -0.309540 4.992809
									CHANNELS 3 Xrotation Yrotation Zrotation
									JOINT mixamorig:LeftHandIndex2
									{
										OFFSET 6.226883 0.000000 0.000000
										CHANNELS 3 Xrotation Yrotation Zrotation
										JOINT mixamorig:LeftHandIndex3
										{
											OFFSET 6.094330 0.000000 0.000000
											CHANNELS 3 Xrotation Yrotation Zrotation
											JOINT mixamorig:LeftHandIndex4
											{
												OFFSET 5.482605 0.000000 0.000000
												CHANNELS 3 Xrotation Yrotation Zrotation
												End Site
												{
													OFFSET -1.427902 5.233032 0.797164
												}
											}
										}
									}
								}
								JOINT mixamorig:LeftHandRing1
								{
									OFFSET 22.299240 0.021149 -3.964172
									CHANNELS 3 Xrotation Yrotation Zrotation
									JOINT mixamorig:LeftHandRing2
									{
										OFFSET 6.321869 0.000000 0.000000
										CHANNELS 3 Xrotation Yrotation Zrotation
										JOINT mixamorig:LeftHandRing3
										{
											OFFSET 5.899796 0.000000 0.000000
											CHANNELS 3 Xrotation Yrotation Zrotation
											JOINT mixamorig:LeftHandRing4
											{
												OFFSET 6.517899 0.000000 0.000000
												CHANNELS 3 Xrotation Yrotation Zrotation
												End Site
												{
													OFFSET -1.637299 6.232208 0.980890
												}
											}
										}
									}
								}
								JOINT mixamorig:LeftHandPinky1
								{
									OFFSET 20.463791 -0.302338 -8.562233
									CHANNELS 3 Xrotation Yrotation Zrotation
									JOINT mixamorig:LeftHandPinky2
									{
										OFFSET 6.908646 0.000000 0.000000
										CHANNELS 3 Xrotation Yrotation Zrotation
										JOINT mixamorig:LeftHandPinky3
										{
											OFFSET 4.622849 0.000000 0.000000
											CHANNELS 3 Xrotation Yrotation Zrotation
											JOINT mixamorig:LeftHandPinky4
											{
												OFFSET 5.216080 0.000000 0.000000
												CHANNELS 3 Xrotation Yrotation Zrotation
												End Site
												{
													OFFSET -0.606308 5.116241 0.814926
												}
											}
										}
									}
								}
							}
						}
					}
				}
				JOINT mixamorig:RightShoulder
				{
					OFFSET -12.001300 18.284088 1.348900
					CHANNELS 3 Xrotation Yrotation Zrotation
					JOINT mixamorig:RightArm
					{
						OFFSET -25.308500 -0.751312 -5.164599
						CHANNELS 3 Xrotation Yrotation Zrotation
						JOINT mixamorig:RightForeArm
						{
							OFFSET -54.684429 0.000000 0.000000
							CHANNELS 3 Xrotation Yrotation Zrotation
							JOINT mixamorig:RightHand
							{
								OFFSET -55.150291 0.000000 0.000000
								CHANNELS 3 Xrotation Yrotation Zrotation
								JOINT mixamorig:RightHandMiddle1
								{
									OFFSET -23.317566 0.000000 0.000000
									CHANNELS 3 Xrotation Yrotation Zrotation
									JOINT mixamorig:RightHandMiddle2
									{
										OFFSET -6.378403 0.000000 0.000000
										CHANNELS 3 Xrotation Yrotation Zrotation
										JOINT mixamorig:RightHandMiddle3
										{
											OFFSET -6.148193 0.000000 0.000000
											CHANNELS 3 Xrotation Yrotation Zrotation
											JOINT mixamorig:RightHandMiddle4
											{
												OFFSET -6.583389 0.000000 0.000000
												CHANNELS 3 Xrotation Yrotation Zrotation
												End Site
												{
													OFFSET 1.171692 6.395905 1.029786
												}
											}
										}
									}
								}
								JOINT mixamorig:RightHandThumb1
								{
									OFFSET -7.190521 -3.860474 5.435846
									CHANNELS 3 Xrotation Yrotation Zrotation
									JOINT mixamorig:RightHandThumb2
									{
										OFFSET -6.567429 -3.791718 3.791708
										CHANNELS 3 Xrotation Yrotation Zrotation
										JOINT mixamorig:RightHandThumb3
										{
											OFFSET -6.062469 -3.500153 3.500166
											CHANNELS 3 Xrotation Yrotation Zrotation
											JOINT mixamorig:RightHandThumb4
											{
												OFFSET -4.792618 -2.767029 2.767022
												CHANNELS 3 Xrotation Yrotation Zrotation
												End Site
												{
													OFFSET -0.100327 6.053253 1.276754
												}
											}
										}
									}
								}
								JOINT mixamorig:RightHandIndex1
								{
									OFFSET -23.048981 -0.310791 4.992554
									CHANNELS 3 Xrotation Yrotation Zrotation
									JOINT mixamorig:RightHandIndex2
									{
										OFFSET -6.227539 0.000000 0.000000
										CHANNELS 3 Xrotation Yrotation Zrotation
										JOINT mixamorig:RightHandIndex3
										{
											OFFSET -6.095047 0.000000 0.000000
											CHANNELS 3 Xrotation Yrotation Zrotation
											JOINT mixamorig:RightHandIndex4
											{
												OFFSET -5.484772 0.000000 0.000000
												CHANNELS 3 Xrotation Yrotation Zrotation
												End Site
												{
													OFFSET 1.420593 5.237305 0.797056
												}
											}
										}
									}
								}
								JOINT mixamorig:RightHandRing1
								{
									OFFSET -22.246323 0.020569 -3.963762
									CHANNELS 3 Xrotation Yrotation Zrotation
									JOINT mixamorig:RightHandRing2
									{
										OFFSET -6.322128 0.000000 0.000000
										CHANNELS 3 Xrotation Yrotation Zrotation
										JOINT mixamorig:RightHandRing3
										{
											OFFSET -5.900024 0.000000 0.000000
											CHANNELS 3 Xrotation Yrotation Zrotation
											JOINT mixamorig:RightHandRing4
											{
												OFFSET -6.518356 0.000000 0.000000
												CHANNELS 3 Xrotation Yrotation Zrotation
												End Site
												{
													OFFSET 1.636398 6.232697 0.982186
												}
											}
										}
									}
								}
								JOINT mixamorig:RightHandPinky1
								{
									OFFSET -20.411011 -0.303314 -8.561701
									CHANNELS 3 Xrotation Yrotation Zrotation
									JOINT mixamorig:RightHandPinky2
									{
										OFFSET -6.907349 0.000000 0.000000
										CHANNELS 3 Xrotation Yrotation Zrotation
										JOINT mixamorig:RightHandPinky3
										{
											OFFSET -4.623840 0.000000 0.000000
											CHANNELS 3 Xrotation Yrotation Zrotation
											JOINT mixamorig:RightHandPinky4
											{
												OFFSET -5.218353 0.000000 0.000000
												CHANNELS 3 Xrotation Yrotation Zrotation
												End Site
												{
													OFFSET 0.602097 5.118835 0.816273
												}
											}
										}
									}
								}
							}
						}
					}
				}
			}
		}
	}
	JOINT mixamorig:LeftUpLeg
	{
		OFFSET 18.168400 -13.561905 -0.039000
		CHANNELS 3 Xrotation Yrotation Zrotation
		JOINT mixamorig:LeftLeg
		{
			OFFSET 0.577358 -80.825211 -3.695000
			CHANNELS 3 Xrotation Yrotation Zrotation
			JOINT mixamorig:LeftFoot
			{
				OFFSET -0.577356 -83.370262 -6.520700
				CHANNELS 3 Xrotation Yrotation Zrotation
				JOINT mixamorig:LeftToeBase
				{
					OFFSET 0.750401 -20.798306 25.135401
					CHANNELS 3 Xrotation Yrotation Zrotation
					JOINT mixamorig:LeftToe_End
					{
						OFFSET -0.000500 0.001200 19.917799
						CHANNELS 3 Xrotation Yrotation Zrotation
						End Site
						{
							OFFSET 0.000000 19.917805 0.000000
						}
					}
				}
			}
		}
	}
	JOINT mixamorig:RightUpLeg
	{
		OFFSET -18.162500 -13.585098 -0.041000
		CHANNELS 3 Xrotation Yrotation Zrotation
		JOINT mixamorig:RightLeg
		{
			OFFSET -0.595024 -80.945297 -3.631900
			CHANNELS 3 Xrotation Yrotation Zrotation
			JOINT mixamorig:RightFoot
			{
				OFFSET 0.595024 -83.218193 -6.561200
				CHANNELS 3 Xrotation Yrotation Zrotation
				JOINT mixamorig:RightToeBase
				{
					OFFSET -0.753601 -20.807106 25.115000
					CHANNELS 3 Xrotation Yrotation Zrotation
					JOINT mixamorig:RightToe_End
					{
						OFFSET 0.000299 0.001700 19.918200
						CHANNELS 3 Xrotation Yrotation Zrotation
						End Site
						{
							OFFSET 0.000000 19.918203 0.000000
						}
					}
				}
			}
		}
	}
}
MOTION
Frames: 5
Frame Time: 0.033333
0.383799 176.629166 -0.635366 -7.379048 -53.039079 -1.322431 8.651984 4.597527 -2.399229 7.504179 1.421748 -2.976273 7.506789 1.422172 -2.962491 2.565301 7.768395 2.467603 -0.077579 26.532783 -2.247075 -0.000001 -0.000000 0.000000 -0.000001 -0.000000 0.000000 -0.000001 -0.000000 0.000000 -0.067893 -0.187719 -2.976455 -39.901794 8.390130 -54.169841 0.000061 -115.682299 0.000074 -2.386950 -4.811411 -14.034049 -0.461476 3.841581 -39.722690 6.450737 5.820350 -95.892844 2.182885 4.561553 -51.127719 0.000002 0.000001 0.000005 -6.141210 -11.690811 -6.761692 9.914080 42.595522 3.409869 -0.422809 8.108094 27.509108 0.000003 0.000002 -0.000001 0.255309 3.378215 -45.814348 5.654087 5.847748 -88.067462 2.162142 4.544809 -50.866386 -0.000000 -0.000001 -0.000003 0.469729 4.966834 -39.799447 8.181050 5.368618 -113.503018 3.200485 5.218115 -63.022989 -0.000002 0.000001 -0.000001 -3.762424 9.063694 -45.253835 5.342533 5.828988 -85.005311 8.716845 5.103333 -119.369208 0.000000 0.000001 0.000004 2.982083 12.584090 -4.627913 -47.070197 23.331195 82.269089 -0.000127 108.362829 0.000108 -8.143842 17.256599 8.233459 -0.761627 -2.932912 39.031075 5.133901 -4.632770 95.881676 1.739739 -3.631697 51.181360 0.000001 -0.000002 0.000003 -7.341107 13.749654 7.412324 9.855773 -44.489093 -3.903263 -0.115794 -14.513066 -28.973854 -0.000002 -0.000002 0.000001 -0.124376 -2.384788 45.108864 4.500570 -4.654514 88.071171 1.723226 -3.618369 50.920126 0.000001 -0.000003 -0.000000 0.154759 -4.068819 39.122664 6.509736 -4.273597 113.462857 2.549570 -4.153902 63.067330 0.000001 0.000001 0.000002 -4.198875 -8.025517 44.637783 4.252914 -4.639632 85.014811 6.935963 -4.062626 119.322298 -0.000001 -0.000000 0.000001 -28.225526 9.819368 16.819373 53.714230 -0.580960 3.661136 -21.176378 -8.138645 -16.519948 -1.594042 -0.000019 0.000003 0.000000 0.000002 -0.000000 -27.510624 -9.419703 -27.985495 54.618311 -3.524110 -7.821850 -21.295336 -4.416942 17.274115 -0.012996 0.000050 0.000001 0.000000 -0.000001 -0.000000 
0.125058 175.896347 -0.737881 -7.047829 -51.192749 -1.003774 8.742554 5.076047 -2.223343 6.299226 1.274563 -2.516182 6.304576 1.271562 -2.504459 1.928681 9.098272 2.851621 2.082489 25.958989 -3.174842 -0.000001 -0.000000 0.000000 -0.000001 -0.000000 0.000000 -0.000001 -0.000000 0.000000 0.118406 0.515611 -4.018943 -42.613533 8.330720 -53.056606 0.000020 -113.596161 0.000017 -1.285818 -5.732227 -13.542919 -0.461471 3.841581 -39.722693 6.450740 5.820350 -95.892844 2.182884 4.561560 -51.127726 0.000002 -0.000002 0.000002 -6.141211 -11.690812 -6.761689 9.914078 42.595519 3.409879 -0.422817 8.108085 27.509111 0.000004 0.000005 -0.000001 0.255313 3.378216 -45.814348 5.654083 5.847748 -88.067462 2.162142 4.544813 -50.866386 0.000000 0.000000 -0.000004 0.469733 4.966837 -39.799451 8.181049 5.368618 -113.503018 3.200486 5.218116 -63.022989 -0.000000 0.000001 -0.000001 -3.762421 9.063698 -45.253842 5.342536 5.828989 -85.005311 8.716845 5.103342 -119.369208 0.000001 0.000000 -0.000002 3.032053 12.821027 -4.925080 -47.835117 25.152629 82.680519 0.000345 107.206560 -0.000356 -8.342573 17.382046 8.570847 -0.761627 -2.932910 39.031072 5.133900 -4.632768 95.881676 1.739735 -3.631695 51.181367 0.000002 0.000002 0.000003 -7.341110 13.749657 7.412323 9.855785 -44.489089 -3.903261 -0.115797 -14.513064 -28.973864 0.000001 -0.000001 0.000001 -0.124375 -2.384789 45.108857 4.500570 -4.654510 88.071178 1.723230 -3.618377 50.920122 0.000001 0.000002 -0.000000 0.154758 -4.068817 39.122668 6.509737 -4.273598 113.462850 2.549569 -4.153897 63.067317 0.000001 0.000001 -0.000002 -4.198878 -8.025518 44.637783 4.252913 -4.639633 85.014818 6.935962 -4.062624 119.322285 0.000001 -0.000000 0.000001 -29.407830 9.330079 16.744999 54.810602 -2.055973 3.945119 -21.390681 -8.186490 -16.048539 -1.594043 -0.000019 0.000002 0.000000 -0.000002 -0.000000 -27.137115 -9.596774 -28.059870 55.384501 -5.178961 -7.746217 -21.865032 -4.675125 18.102153 -0.012996 0.000051 0.000000 -0.000000 -0.000001 -0.000000 
0.044792 175.114334 -0.749889 -6.687586 -49.530988 -0.721436 8.869046 5.586280 -2.069040 5.132809 1.153769 -2.069472 5.140888 1.148047 -2.058379 1.342632 10.347230 3.262040 4.115608 25.022769 -3.878342 0.000001 -0.000000 0.000001 0.000001 -0.000000 0.000001 0.000001 -0.000000 0.000001 0.339019 1.254483 -5.128547 -45.403911 7.941872 -52.165017 0.000112 -111.567356 0.000095 -0.241902 -6.483391 -13.439758 -0.461473 3.841581 -39.722693 6.450736 5.820351 -95.892844 2.182884 4.561562 -51.127726 -0.000000 -0.000000 -0.000003 -6.141210 -11.690810 -6.761695 9.914073 42.595522 3.409874 -0.422810 8.108089 27.509111 -0.000004 -0.000000 -0.000000 0.255310 3.378219 -45.814354 5.654084 5.847749 -88.067462 2.162142 4.544814 -50.866382 -0.000001 0.000001 -0.000000 0.469725 4.966841 -39.799444 8.181052 5.368618 -113.503018 3.200485 5.218114 -63.022996 -0.000002 0.000002 -0.000002 -3.762423 9.063697 -45.253842 5.342537 5.828988 -85.005311 8.716845 5.103343 -119.369194 -0.000002 0.000000 0.000002 3.028827 12.939417 -5.207633 -48.411151 26.472304 83.182046 0.000043 106.395660 -0.000047 -8.369536 17.485021 8.754918 -0.761625 -2.932912 39.031078 5.133903 -4.632770 95.881676 1.739738 -3.631694 51.181357 0.000000 -0.000001 0.000001 -7.341107 13.749650 7.412324 9.855779 -44.489089 -3.903260 -0.115794 -14.513063 -28.973857 -0.000002 -0.000003 -0.000001 -0.124376 -2.384786 45.108861 4.500567 -4.654514 88.071171 1.723226 -3.618373 50.920129 -0.000002 0.000000 0.000001 0.154761 -4.068818 39.122668 6.509735 -4.273598 113.462857 2.549569 -4.153898 63.067324 0.000001 -0.000003 0.000001 -4.198875 -8.025523 44.637789 4.252912 -4.639631 85.014818 6.935960 -4.062622 119.322285 0.000001 -0.000000 -0.000000 -30.677839 8.852077 16.687785 56.040760 -3.384221 4.165275 -21.647100 -8.236353 -15.532590 -1.594043 -0.000015 0.000002 0.000000 0.000002 -0.000000 -26.917383 -9.717991 -28.106394 56.155490 -6.674537 -7.698693 -22.333190 -4.922929 18.932494 -0.012996 0.000050 0.000001 0.000000 0.000000 -0.000000 
0.016689 174.361633 -0.721216 -6.275663 -48.179147 -0.471442 9.042333 6.132166 -1.956328 4.048674 1.077500 -1.653437 4.059195 1.070745 -1.638735 0.847382 11.448709 3.691193 5.929587 23.632711 -4.219309 -0.000001 -0.000000 0.000001 -0.000001 -0.000000 0.000001 -0.000001 -0.000000 0.000001 0.585959 2.031459 -6.305272 -48.226562 7.147164 -51.633942 -0.000200 -109.675100 -0.000196 0.640168 -7.025673 -13.905979 -0.461472 3.841580 -39.722690 6.450738 5.820351 -95.892837 2.182884 4.561558 -51.127723 -0.000001 -0.000003 0.000002 -6.141208 -11.690811 -6.761696 9.914073 42.595525 3.409874 -0.422813 8.108094 27.509109 -0.000001 -0.000000 0.000000 0.255311 3.378218 -45.814354 5.654087 5.847751 -88.067462 2.162141 4.544812 -50.866386 -0.000000 -0.000000 0.000005 0.469727 4.966837 -39.799444 8.181054 5.368618 -113.503018 3.200485 5.218111 -63.022989 0.000001 0.000002 -0.000001 -3.762423 9.063697 -45.253838 5.342530 5.828990 -85.005311 8.716845 5.103341 -119.369194 0.000001 -0.000001 -0.000001 3.026829 13.000845 -5.373099 -48.712189 27.141435 83.481202 0.000174 106.003293 -0.000181 -8.340568 17.543305 8.798240 -0.761622 -2.932912 39.031075 5.133898 -4.632775 95.881676 1.739735 -3.631693 51.181360 0.000002 0.000002 0.000003 -7.341107 13.749652 7.412327 9.855784 -44.489096 -3.903262 -0.115798 -14.513066 -28.973864 0.000002 -0.000001 0.000002 -0.124373 -2.384788 45.108864 4.500568 -4.654514 88.071171 1.723226 -3.618375 50.920122 0.000002 0.000001 0.000001 0.154761 -4.068821 39.122668 6.509735 -4.273596 113.462857 2.549573 -4.153894 63.067324 0.000003 0.000000 -0.000001 -4.198875 -8.025518 44.637789 4.252915 -4.639630 85.014818 6.935962 -4.062625 119.322298 -0.000001 0.000000 0.000000 -31.915155 8.402253 16.720330 57.233737 -4.494784 4.283265 -21.912838 -8.282769 -15.047919 -1.594043 -0.000014 0.000002 0.000000 -0.000000 0.000000 -26.866553 -9.800284 -28.075756 56.883199 -7.921613 -7.688057 -22.724263 -5.141252 19.672586 -0.012996 0.000050 0.000001 0.000000 -0.000000 -0.000000 
-0.003877 173.666641 -0.683340 -5.829620 -47.128418 -0.250132 9.254746 6.677552 -1.875105 3.069103 1.031084 -1.270008 3.081910 1.024215 -1.250838 0.440137 12.392559 4.124167 7.513022 21.907775 -4.239762 -0.000001 0.000000 0.000001 -0.000001 0.000000 0.000001 -0.000001 0.000000 0.000001 0.848604 2.812829 -7.498602 -50.960622 6.062112 -51.464581 0.000010 -107.942636 0.000011 1.360462 -7.402051 -14.831541 -0.461473 3.841581 -39.722690 6.450740 5.820350 -95.892844 2.182885 4.561560 -51.127719 0.000001 -0.000002 0.000002 -6.141207 -11.690810 -6.761695 9.914080 42.595522 3.409875 -0.422814 8.108093 27.509115 -0.000001 -0.000001 -0.000001 0.255311 3.378218 -45.814351 5.654088 5.847748 -88.067462 2.162141 4.544812 -50.866386 -0.000000 0.000001 -0.000001 0.469729 4.966835 -39.799444 8.181050 5.368617 -113.503018 3.200486 5.218112 -63.022989 -0.000001 0.000001 -0.000000 -3.762425 9.063697 -45.253835 5.342534 5.828988 -85.005317 8.716845 5.103338 -119.369208 -0.000002 0.000000 0.000001 3.034784 13.028097 -5.402438 -48.766970 27.268642 83.519123 0.000102 105.935701 -0.000108 -8.331483 17.556108 8.780586 -0.761626 -2.932911 39.031078 5.133901 -4.632776 95.881676 1.739736 -3.631691 51.181360 -0.000001 -0.000001 -0.000000 -7.341108 13.749655 7.412325 9.855780 -44.489089 -3.903255 -0.115793 -14.513066 -28.973861 0.000000 -0.000001 0.000002 -0.124376 -2.384786 45.108864 4.500570 -4.654513 88.071171 1.723229 -3.618368 50.920122 -0.000000 -0.000001 -0.000004 0.154759 -4.068817 39.122668 6.509736 -4.273597 113.462857 2.549570 -4.153896 63.067324 -0.000001 -0.000001 0.000003 -4.198877 -8.025522 44.637786 4.252918 -4.639632 85.014811 6.935961 -4.062627 119.322285 0.000000 0.000000 -0.000000 -33.069461 7.988567 16.843206 58.322473 -5.398806 4.309747 -22.169262 -8.326949 -14.620435 -1.594043 -0.000017 0.000002 0.000000 0.000003 0.000000 -26.953993 -9.846471 -27.976115 57.556208 -8.930302 -7.705788 -23.059183 -5.328712 20.298798 -0.012996 0.000050 0.000001 0.000000 0.000000 -0.000000 
